<svg width="192" height="44" viewBox="0 0 192 44" fill="none" xmlns="http://www.w3.org/2000/svg">
<path d="M24.4 4.4V19.424L40.048 4.4H54.784L37.36 20.048L54.88 38H41.008L24.4 20.624V38H12.592V4.4H24.4ZM54.9006 4.4H67.6686L75.9246 37.088H76.3566L84.2286 4.4H103.237L111.253 37.088H111.589L119.845 4.4H132.613L122.677 38H101.269L93.8286 5.312H93.5886L86.1966 38H64.7886L54.9006 4.4ZM180.007 23.264C180.007 33.6 172.327 38.768 156.967 38.768C141.607 38.768 133.927 33.6 133.927 23.264V4.4H145.735V23.264C145.735 27.872 149.479 30.176 156.967 30.176C164.455 30.176 168.199 27.872 168.199 23.264V4.4H180.007V23.264Z" fill="#23150F"/>
</svg>
